<svg id="svg" version="1.1" xmlns="http://www.w3.org/2000/svg" xmlns:xlink="http://www.w3.org/1999/xlink" width="400" height="400" viewBox="0, 0, 400,400"><g id="svgg"><path id="path0" d="M266.900 155.907 C 261.154 155.974,257.600 156.165,257.600 156.407 C 257.600 156.635,256.089 156.800,254.000 156.800 C 251.954 156.800,250.400 156.967,250.400 157.186 C 250.400 157.846,248.923 158.404,246.108 158.809 C 243.054 159.248,239.607 159.945,234.600 161.137 C 227.743 162.770,220.329 165.727,213.481 169.559 C 206.967 173.205,200.880 178.200,195.274 184.500 C 194.344 185.545,193.309 186.400,192.974 186.400 C 192.224 186.400,190.400 188.167,190.400 188.894 C 190.400 189.185,190.040 189.683,189.600 190.000 C 189.160 190.317,188.800 190.854,188.800 191.192 C 188.800 191.531,188.440 192.032,188.000 192.307 C 187.560 192.582,187.200 192.993,187.200 193.220 C 187.200 193.447,186.840 194.020,186.400 194.492 C 185.960 194.964,185.600 195.587,185.600 195.875 C 185.600 196.164,185.420 196.400,185.200 196.400 C 184.980 196.400,184.800 196.760,184.800 197.200 C 184.800 197.640,184.620 198.000,184.400 198.000 C 184.180 198.000,184.000 198.360,184.000 198.800 C 184.000 199.240,183.820 199.600,183.600 199.600 C 183.380 199.600,183.200 199.960,183.200 200.400 C 183.200 200.840,183.020 201.200,182.800 201.200 C 182.580 201.200,182.400 201.560,182.400 202.000 C 182.400 202.440,182.220 202.800,182.000 202.800 C 181.780 202.800,181.600 203.160,181.600 203.600 C 181.600 204.040,181.420 204.400,181.200 204.400 C 180.980 204.400,180.800 204.760,180.800 205.200 C 180.800 205.640,180.620 206.000,180.400 206.000 C 180.180 206.000,180.000 206.272,180.000 206.605 C 180.000 206.938,179.792 207.613,179.538 208.105 C 178.572 209.974,178.522 210.230,178.906 211.332 C 179.174 212.100,179.163 212.743,178.871 213.332 C 178.634 213.809,178.051 215.460,177.574 217.000 C 177.098 218.540,176.549 220.113,176.354 220.495 C 175.461 222.248,175.893 222.592,179.759 223.210 C 181.101 223.424,183.190 223.788,184.400 224.018 C 185.610 224.248,187.680 224.624,189.000 224.852 C 190.320 225.081,192.255 225.433,193.300 225.634 C 198.743 226.682,202.216 227.299,205.600 227.818 C 206.370 227.936,207.630 228.193,208.400 228.388 C 209.170 228.584,211.150 228.950,212.800 229.203 C 214.450 229.455,216.520 229.818,217.400 230.010 C 218.280 230.202,220.260 230.570,221.800 230.828 C 223.340 231.087,225.897 231.546,227.483 231.849 C 231.465 232.610,231.406 232.627,232.204 230.500 C 235.586 221.476,244.145 209.200,247.054 209.200 C 247.354 209.200,247.600 209.020,247.600 208.800 C 247.600 208.580,247.797 208.400,248.038 208.400 C 248.279 208.400,248.954 208.071,249.538 207.668 C 251.147 206.559,254.877 205.233,259.808 204.016 C 263.173 203.185,268.180 203.037,268.890 203.747 C 269.450 204.308,270.680 204.400,277.571 204.400 C 282.657 204.400,285.600 204.547,285.600 204.800 C 285.600 205.022,286.667 205.200,288.000 205.200 C 289.333 205.200,290.400 205.378,290.400 205.600 C 290.400 205.820,291.109 206.000,291.976 206.000 C 292.843 206.000,293.664 206.180,293.800 206.400 C 293.936 206.620,294.453 206.800,294.948 206.800 C 295.444 206.800,296.571 207.148,297.452 207.574 C 298.333 208.000,299.537 208.469,300.127 208.617 C 300.717 208.766,301.200 209.047,301.200 209.243 C 301.200 209.440,301.494 209.600,301.853 209.600 C 302.212 209.600,302.797 209.916,303.153 210.303 C 303.509 210.689,304.275 211.249,304.856 211.547 C 305.437 211.844,306.156 212.563,306.453 213.144 C 306.751 213.725,307.279 214.470,307.627 214.800 C 307.975 215.130,308.757 216.480,309.365 217.800 C 309.972 219.120,310.634 220.513,310.835 220.895 C 311.036 221.277,311.200 222.042,311.200 222.595 C 311.200 223.148,311.380 223.600,311.600 223.600 C 311.820 223.600,312.000 224.320,312.000 225.200 C 312.000 226.080,312.180 226.800,312.400 226.800 C 312.638 226.800,312.800 228.325,312.800 230.576 C 312.800 232.663,312.979 234.463,313.200 234.600 C 313.915 235.042,313.708 242.400,312.981 242.400 C 312.640 242.400,311.616 242.760,310.706 243.200 C 309.795 243.640,308.724 244.000,308.325 244.000 C 307.926 244.000,307.600 244.180,307.600 244.400 C 307.600 244.620,307.060 244.800,306.400 244.800 C 305.740 244.800,305.200 244.980,305.200 245.200 C 305.200 245.420,304.671 245.600,304.024 245.600 C 303.377 245.600,302.736 245.780,302.600 246.000 C 302.464 246.220,301.834 246.400,301.200 246.400 C 300.566 246.400,299.936 246.580,299.800 246.800 C 299.664 247.020,299.023 247.200,298.376 247.200 C 297.729 247.200,297.200 247.380,297.200 247.600 C 297.200 247.820,296.581 248.000,295.824 248.000 C 295.067 248.000,294.336 248.180,294.200 248.400 C 294.064 248.620,293.333 248.800,292.576 248.800 C 291.819 248.800,291.200 248.980,291.200 249.200 C 291.200 249.420,290.480 249.600,289.600 249.600 C 288.720 249.600,287.994 249.735,287.987 249.900 C 287.946 250.877,286.606 251.655,283.961 252.239 C 282.333 252.599,279.470 253.236,277.600 253.654 C 272.882 254.711,270.467 255.234,268.600 255.607 C 262.369 256.850,261.206 257.076,256.400 257.984 C 255.190 258.213,253.300 258.588,252.200 258.818 C 251.100 259.048,249.390 259.400,248.400 259.600 C 243.922 260.504,240.271 261.351,234.800 262.757 C 227.977 264.511,225.597 265.171,223.600 265.862 C 222.610 266.205,220.720 266.646,219.400 266.842 C 218.080 267.038,216.235 267.313,215.300 267.451 C 214.365 267.590,213.600 267.861,213.600 268.052 C 213.600 268.243,213.060 268.400,212.400 268.400 C 211.740 268.400,211.200 268.580,211.200 268.800 C 211.200 269.020,210.840 269.200,210.400 269.200 C 209.960 269.200,209.600 269.380,209.600 269.600 C 209.600 269.820,209.150 270.000,208.600 270.000 C 208.050 270.000,207.600 270.180,207.600 270.400 C 207.600 270.620,207.240 270.800,206.800 270.800 C 206.360 270.800,206.000 270.980,206.000 271.200 C 206.000 271.420,205.640 271.600,205.200 271.600 C 204.760 271.600,204.400 271.780,204.400 272.000 C 204.400 272.220,204.040 272.400,203.600 272.400 C 203.160 272.400,202.800 272.580,202.800 272.800 C 202.800 273.020,202.440 273.200,202.000 273.200 C 201.560 273.200,201.200 273.380,201.200 273.600 C 201.200 273.820,200.840 274.000,200.400 274.000 C 199.960 274.000,199.600 274.135,199.599 274.300 C 199.599 274.465,198.632 275.105,197.451 275.722 C 196.270 276.339,194.928 277.194,194.469 277.622 C 194.009 278.050,193.522 278.400,193.385 278.400 C 193.249 278.400,192.446 279.120,191.600 280.000 C 190.754 280.880,189.884 281.600,189.666 281.600 C 189.167 281.600,184.400 286.267,184.400 286.755 C 184.400 286.954,183.590 287.974,182.600 289.022 C 181.610 290.070,180.800 291.129,180.800 291.375 C 180.800 291.622,180.440 292.083,180.000 292.400 C 179.560 292.717,179.200 293.207,179.200 293.488 C 179.200 293.770,179.053 294.000,178.873 294.000 C 178.389 294.000,174.800 301.035,174.800 301.985 C 174.800 302.433,174.620 302.800,174.400 302.800 C 174.180 302.800,174.000 303.160,174.000 303.600 C 174.000 304.040,173.820 304.400,173.600 304.400 C 173.380 304.400,173.200 304.760,173.200 305.200 C 173.200 305.640,173.020 306.000,172.800 306.000 C 172.580 306.000,172.400 306.540,172.400 307.200 C 172.400 307.860,172.220 308.400,172.000 308.400 C 171.780 308.400,171.600 308.929,171.600 309.576 C 171.600 310.223,171.420 310.864,171.200 311.000 C 170.980 311.136,170.800 311.766,170.800 312.400 C 170.800 313.034,170.620 313.664,170.400 313.800 C 170.180 313.936,170.000 314.847,170.000 315.824 C 170.000 316.801,169.820 317.600,169.600 317.600 C 169.371 317.600,169.200 318.800,169.200 320.400 C 169.200 322.000,169.029 323.200,168.800 323.200 C 168.546 323.200,168.400 326.267,168.400 331.600 C 168.400 336.933,168.546 340.000,168.800 340.000 C 169.029 340.000,169.200 341.200,169.200 342.800 C 169.200 344.400,169.371 345.600,169.600 345.600 C 169.820 345.600,170.000 346.500,170.000 347.600 C 170.000 348.700,170.180 349.600,170.400 349.600 C 170.620 349.600,170.800 350.320,170.800 351.200 C 170.800 352.080,170.980 352.800,171.200 352.800 C 171.420 352.800,171.600 353.340,171.600 354.000 C 171.600 354.660,171.780 355.200,172.000 355.200 C 172.220 355.200,172.400 355.639,172.400 356.176 C 172.400 356.713,172.580 357.264,172.800 357.400 C 173.020 357.536,173.200 358.087,173.200 358.624 C 173.200 359.161,173.380 359.600,173.600 359.600 C 173.820 359.600,174.000 359.960,174.000 360.400 C 174.000 360.840,174.180 361.200,174.400 361.200 C 174.620 361.200,174.800 361.485,174.800 361.832 C 174.800 362.473,177.457 368.032,177.940 368.400 C 178.083 368.510,178.456 369.095,178.768 369.700 C 179.080 370.305,179.485 370.800,179.668 370.800 C 179.850 370.800,180.000 371.043,180.000 371.341 C 180.000 371.638,180.540 372.446,181.200 373.137 C 181.860 373.828,182.400 374.486,182.400 374.600 C 182.400 374.871,193.129 385.600,193.400 385.600 C 193.514 385.600,194.172 386.140,194.863 386.800 C 195.554 387.460,196.279 388.000,196.476 388.000 C 196.673 388.000,197.220 388.360,197.692 388.800 C 198.164 389.240,198.787 389.600,199.075 389.600 C 199.364 389.600,199.600 389.747,199.600 389.926 C 199.600 390.324,202.201 391.600,203.014 391.600 C 203.336 391.600,203.600 391.780,203.600 392.000 C 203.600 392.220,203.960 392.400,204.400 392.400 C 204.840 392.400,205.200 392.580,205.200 392.800 C 205.200 393.020,205.560 393.200,206.000 393.200 C 206.440 393.200,206.800 393.380,206.800 393.600 C 206.800 393.820,207.160 394.000,207.600 394.000 C 208.040 394.000,208.400 394.180,208.400 394.400 C 208.400 394.620,208.749 394.800,209.176 394.800 C 209.603 394.800,210.064 394.980,210.200 395.200 C 210.336 395.420,210.797 395.600,211.224 395.600 C 211.651 395.600,212.000 395.780,212.000 396.000 C 212.000 396.220,212.540 396.400,213.200 396.400 C 213.860 396.400,214.400 396.580,214.400 396.800 C 214.400 397.020,214.940 397.200,215.600 397.200 C 216.260 397.200,216.800 397.380,216.800 397.600 C 216.800 397.820,217.520 398.000,218.400 398.000 C 219.280 398.000,220.000 398.180,220.000 398.400 C 220.000 398.620,220.705 398.800,221.567 398.800 C 222.464 398.800,223.204 399.013,223.300 399.300 C 223.543 400.030,268.130 400.030,268.860 399.300 C 269.135 399.025,269.943 398.800,270.656 398.800 C 271.369 398.800,272.064 398.620,272.200 398.400 C 272.336 398.180,272.966 398.000,273.600 398.000 C 274.234 398.000,274.864 397.820,275.000 397.600 C 275.136 397.380,275.777 397.200,276.424 397.200 C 277.071 397.200,277.600 397.020,277.600 396.800 C 277.600 396.580,278.140 396.400,278.800 396.400 C 279.460 396.400,280.000 396.220,280.000 396.000 C 280.000 395.780,280.349 395.600,280.776 395.600 C 281.203 395.600,281.664 395.420,281.800 395.200 C 281.936 394.980,282.487 394.800,283.024 394.800 C 283.561 394.800,284.000 394.620,284.000 394.400 C 284.000 394.180,284.349 394.000,284.776 394.000 C 285.203 394.000,285.664 393.820,285.800 393.600 C 285.936 393.380,286.397 393.200,286.824 393.200 C 287.251 393.200,287.600 393.020,287.600 392.800 C 287.600 392.580,287.858 392.400,288.173 392.400 C 288.889 392.400,296.152 388.777,296.333 388.329 C 296.407 388.148,296.812 388.000,297.233 388.000 C 297.655 388.000,298.000 387.850,298.000 387.668 C 298.000 387.485,298.495 387.080,299.100 386.768 C 299.705 386.455,300.549 385.885,300.975 385.500 C 301.402 385.115,301.987 384.800,302.275 384.800 C 302.564 384.800,302.800 384.650,302.800 384.468 C 302.800 384.285,303.295 383.881,303.900 383.570 C 304.505 383.260,305.291 382.689,305.647 382.303 C 306.003 381.916,306.422 381.600,306.578 381.600 C 306.735 381.600,307.597 380.880,308.495 380.000 C 309.393 379.120,310.283 378.400,310.474 378.400 C 310.665 378.400,311.599 377.635,312.551 376.700 C 313.502 375.765,314.686 374.730,315.181 374.400 C 315.676 374.070,316.648 373.308,317.341 372.706 C 318.978 371.284,319.200 371.319,319.200 373.000 C 319.200 373.770,319.380 374.400,319.600 374.400 C 319.820 374.400,320.000 374.940,320.000 375.600 C 320.000 376.260,320.180 376.800,320.400 376.800 C 320.620 376.800,320.800 377.340,320.800 378.000 C 320.800 378.660,320.980 379.200,321.200 379.200 C 321.420 379.200,321.600 379.920,321.600 380.800 C 321.600 381.680,321.780 382.400,322.000 382.400 C 322.220 382.400,322.400 382.940,322.400 383.600 C 322.400 384.260,322.580 384.800,322.800 384.800 C 323.020 384.800,323.200 385.340,323.200 386.000 C 323.200 386.660,323.380 387.200,323.600 387.200 C 323.820 387.200,324.000 387.639,324.000 388.176 C 324.000 388.713,324.180 389.264,324.400 389.400 C 324.620 389.536,324.801 390.042,324.802 390.524 C 324.804 391.006,325.046 391.862,325.341 392.427 C 325.635 392.991,325.998 393.936,326.146 394.527 L 326.415 395.600 357.608 395.600 L 388.800 395.600 388.800 394.475 C 388.800 393.856,388.440 392.605,388.000 391.694 C 387.560 390.784,387.200 389.760,387.200 389.419 C 387.200 389.079,387.020 388.800,386.800 388.800 C 386.580 388.800,386.400 388.440,386.400 388.000 C 386.400 387.560,386.220 387.200,386.000 387.200 C 385.780 387.200,385.600 386.840,385.600 386.400 C 385.600 385.960,385.420 385.600,385.200 385.600 C 384.980 385.600,384.800 385.060,384.800 384.400 C 384.800 383.740,384.620 383.200,384.400 383.200 C 384.180 383.200,384.000 382.840,384.000 382.400 C 384.000 381.960,383.820 381.600,383.600 381.600 C 383.380 381.600,383.200 381.060,383.200 380.400 C 383.200 379.740,383.020 379.200,382.800 379.200 C 382.580 379.200,382.400 378.750,382.400 378.200 C 382.400 377.650,382.220 377.200,382.000 377.200 C 381.780 377.200,381.600 376.660,381.600 376.000 C 381.600 375.340,381.420 374.800,381.200 374.800 C 380.980 374.800,380.800 374.260,380.800 373.600 C 380.800 372.940,380.620 372.400,380.400 372.400 C 380.180 372.400,380.000 371.860,380.000 371.200 C 380.000 370.540,379.820 370.000,379.600 370.000 C 379.380 370.000,379.200 369.280,379.200 368.400 C 379.200 367.520,379.020 366.800,378.800 366.800 C 378.580 366.800,378.400 366.080,378.400 365.200 C 378.400 364.320,378.220 363.600,378.000 363.600 C 377.780 363.600,377.600 362.610,377.600 361.400 C 377.600 360.190,377.420 359.200,377.200 359.200 C 376.971 359.200,376.800 358.000,376.800 356.400 C 376.800 354.800,376.629 353.600,376.400 353.600 C 376.159 353.600,376.000 351.960,376.000 349.480 C 376.000 346.948,375.826 345.186,375.548 344.908 C 375.215 344.575,375.103 328.922,375.126 285.728 C 375.143 252.440,374.993 224.834,374.779 222.000 C 374.105 213.055,373.972 211.811,373.604 211.000 C 373.405 210.560,373.142 209.345,373.021 208.300 C 372.505 203.865,372.300 202.800,371.960 202.800 C 371.762 202.800,371.600 202.080,371.600 201.200 C 371.600 200.320,371.420 199.600,371.200 199.600 C 370.980 199.600,370.800 199.060,370.800 198.400 C 370.800 197.740,370.620 197.200,370.400 197.200 C 370.180 197.200,370.000 196.660,370.000 196.000 C 370.000 195.340,369.820 194.800,369.600 194.800 C 369.380 194.800,369.200 194.451,369.200 194.024 C 369.200 193.597,369.020 193.136,368.800 193.000 C 368.580 192.864,368.400 192.403,368.400 191.976 C 368.400 191.549,368.220 191.200,368.000 191.200 C 367.780 191.200,367.600 190.880,367.600 190.488 C 367.600 190.097,367.240 189.517,366.800 189.200 C 366.360 188.883,366.000 188.303,366.000 187.912 C 366.000 187.520,365.850 187.200,365.668 187.200 C 365.485 187.200,365.081 186.705,364.770 186.100 C 364.460 185.495,363.926 184.730,363.584 184.400 C 363.242 184.070,362.523 183.170,361.986 182.400 C 360.744 180.619,357.471 177.339,355.400 175.799 C 354.520 175.144,353.509 174.292,353.153 173.904 C 352.797 173.517,352.252 173.200,351.941 173.200 C 351.631 173.200,351.117 172.840,350.800 172.400 C 350.483 171.960,349.993 171.600,349.712 171.600 C 349.430 171.600,349.200 171.420,349.200 171.200 C 349.200 170.980,348.930 170.800,348.600 170.800 C 348.270 170.800,348.000 170.620,348.000 170.400 C 348.000 170.180,347.680 170.000,347.288 170.000 C 346.897 170.000,346.317 169.640,346.000 169.200 C 345.683 168.760,345.103 168.400,344.712 168.400 C 344.320 168.400,344.000 168.220,344.000 168.000 C 344.000 167.780,343.640 167.600,343.200 167.600 C 342.760 167.600,342.400 167.454,342.400 167.275 C 342.400 167.096,341.770 166.702,341.000 166.400 C 340.230 166.098,339.600 165.704,339.600 165.525 C 339.600 165.346,339.240 165.200,338.800 165.200 C 338.360 165.200,338.000 165.020,338.000 164.800 C 338.000 164.580,337.640 164.400,337.200 164.400 C 336.760 164.400,336.400 164.220,336.400 164.000 C 336.400 163.780,335.860 163.600,335.200 163.600 C 334.540 163.600,334.000 163.420,334.000 163.200 C 334.000 162.980,333.651 162.800,333.224 162.800 C 332.797 162.800,332.336 162.620,332.200 162.400 C 332.064 162.180,331.524 162.000,331.000 162.000 C 330.476 162.000,329.936 161.820,329.800 161.600 C 329.664 161.380,329.034 161.200,328.400 161.200 C 327.766 161.200,327.148 161.040,327.027 160.844 C 326.906 160.649,326.221 160.392,325.504 160.273 C 324.787 160.155,323.390 159.854,322.400 159.604 C 319.562 158.888,316.761 158.461,314.700 158.429 C 313.655 158.413,312.800 158.220,312.800 158.000 C 312.800 157.769,311.533 157.600,309.800 157.600 C 308.067 157.600,306.800 157.431,306.800 157.200 C 306.800 156.960,305.211 156.800,302.833 156.800 C 300.652 156.800,298.807 156.628,298.733 156.417 C 298.587 155.997,282.072 155.732,266.900 155.907 M313.600 292.976 C 313.600 298.529,313.447 302.047,313.200 302.200 C 312.617 302.561,312.681 314.102,313.274 315.403 C 314.058 317.124,312.559 324.833,310.514 329.600 C 308.231 334.920,304.985 339.458,302.957 340.166 C 301.829 340.560,299.188 342.537,297.035 344.600 C 296.576 345.040,295.705 345.655,295.100 345.968 C 294.495 346.280,294.000 346.685,294.000 346.868 C 294.000 347.050,293.812 347.200,293.583 347.200 C 293.354 347.200,292.780 347.560,292.308 348.000 C 291.836 348.440,291.213 348.800,290.925 348.800 C 290.636 348.800,290.400 348.980,290.400 349.200 C 290.400 349.420,290.040 349.600,289.600 349.600 C 289.160 349.600,288.800 349.780,288.800 350.000 C 288.800 350.220,288.440 350.400,288.000 350.400 C 287.560 350.400,287.200 350.580,287.200 350.800 C 287.200 351.020,286.840 351.200,286.400 351.200 C 285.960 351.200,285.600 351.380,285.600 351.600 C 285.600 351.820,285.240 352.000,284.800 352.000 C 284.360 352.000,284.000 352.180,284.000 352.400 C 284.000 352.620,283.460 352.800,282.800 352.800 C 282.140 352.800,281.600 352.980,281.600 353.200 C 281.600 353.420,281.161 353.600,280.624 353.600 C 280.087 353.600,279.536 353.780,279.400 354.000 C 279.264 354.220,278.623 354.400,277.976 354.400 C 277.329 354.400,276.800 354.580,276.800 354.800 C 276.800 355.020,275.990 355.200,275.000 355.200 C 274.010 355.200,273.200 355.380,273.200 355.600 C 273.200 355.853,270.408 356.000,265.624 356.000 C 261.004 356.000,257.951 355.844,257.800 355.600 C 257.664 355.380,256.944 355.200,256.200 355.200 C 255.456 355.200,254.736 355.020,254.600 354.800 C 254.464 354.580,253.924 354.400,253.400 354.400 C 252.876 354.400,252.336 354.220,252.200 354.000 C 252.064 353.780,251.603 353.600,251.176 353.600 C 250.749 353.600,250.400 353.420,250.400 353.200 C 250.400 352.980,250.040 352.800,249.600 352.800 C 249.160 352.800,248.800 352.620,248.800 352.400 C 248.800 352.180,248.480 352.000,248.088 352.000 C 247.697 352.000,247.117 351.640,246.800 351.200 C 246.483 350.760,245.968 350.400,245.657 350.400 C 245.007 350.400,237.200 342.471,237.200 341.812 C 237.200 341.572,236.840 341.117,236.400 340.800 C 235.960 340.483,235.600 339.903,235.600 339.512 C 235.600 339.120,235.420 338.800,235.200 338.800 C 234.980 338.800,234.800 338.440,234.800 338.000 C 234.800 337.560,234.620 337.200,234.400 337.200 C 234.180 337.200,234.000 336.761,234.000 336.224 C 234.000 335.687,233.820 335.136,233.600 335.000 C 233.380 334.864,233.200 334.324,233.200 333.800 C 233.200 333.276,233.020 332.736,232.800 332.600 C 232.580 332.464,232.400 331.643,232.400 330.776 C 232.400 329.909,232.220 329.200,232.000 329.200 C 231.762 329.200,231.600 327.675,231.600 325.424 C 231.600 323.337,231.779 321.537,232.000 321.400 C 232.220 321.264,232.400 320.544,232.400 319.800 C 232.400 319.056,232.580 318.336,232.800 318.200 C 233.020 318.064,233.200 317.513,233.200 316.976 C 233.200 316.439,233.380 316.000,233.600 316.000 C 233.820 316.000,234.000 315.640,234.000 315.200 C 234.000 314.760,234.180 314.400,234.400 314.400 C 234.620 314.400,234.800 314.040,234.800 313.600 C 234.800 313.160,234.980 312.800,235.200 312.800 C 235.420 312.800,235.600 312.568,235.600 312.284 C 235.600 312.000,236.320 310.972,237.200 310.000 C 238.140 308.961,238.800 307.832,238.800 307.263 C 238.800 304.558,248.230 299.369,257.900 296.752 C 258.615 296.558,259.875 296.208,260.700 295.973 C 261.525 295.739,262.875 295.379,263.700 295.173 C 264.525 294.968,265.920 294.620,266.800 294.400 C 270.745 293.414,271.907 293.132,273.500 292.778 C 274.435 292.570,276.010 292.220,277.000 292.000 C 277.990 291.780,279.565 291.430,280.500 291.221 C 281.435 291.013,282.740 290.735,283.400 290.603 C 284.060 290.470,285.230 290.199,286.000 290.000 C 286.770 289.801,288.975 289.269,290.900 288.819 C 292.825 288.369,295.944 287.618,297.831 287.151 C 300.368 286.523,301.379 286.419,301.711 286.751 C 302.268 287.308,303.867 287.339,304.200 286.800 C 304.336 286.580,304.966 286.400,305.600 286.400 C 306.234 286.400,306.864 286.220,307.000 286.000 C 307.136 285.780,307.777 285.600,308.424 285.600 C 309.071 285.600,309.600 285.420,309.600 285.200 C 309.600 284.980,310.140 284.800,310.800 284.800 C 311.460 284.800,312.000 284.620,312.000 284.400 C 312.000 284.180,312.360 284.000,312.800 284.000 C 313.576 284.000,313.600 284.267,313.600 292.976 " stroke="none" fill="#fb3404" fill-rule="evenodd"></path><path id="path1" d="M124.000 16.800 C 124.000 17.240,123.820 17.600,123.600 17.600 C 123.380 17.600,123.200 17.960,123.200 18.400 C 123.200 18.840,123.020 19.200,122.800 19.200 C 122.580 19.200,122.400 19.740,122.400 20.400 C 122.400 21.060,122.220 21.600,122.000 21.600 C 121.780 21.600,121.600 21.960,121.600 22.400 C 121.600 22.840,121.420 23.200,121.200 23.200 C 120.980 23.200,120.800 23.740,120.800 24.400 C 120.800 25.060,120.620 25.600,120.400 25.600 C 120.180 25.600,120.000 26.050,120.000 26.600 C 120.000 27.150,119.820 27.600,119.600 27.600 C 119.380 27.600,119.200 27.960,119.200 28.400 C 119.200 28.840,119.020 29.200,118.800 29.200 C 118.580 29.200,118.400 29.740,118.400 30.400 C 118.400 31.060,118.220 31.600,118.000 31.600 C 117.780 31.600,117.600 31.949,117.600 32.376 C 117.600 32.803,117.420 33.264,117.200 33.400 C 116.980 33.536,116.800 34.087,116.800 34.624 C 116.800 35.161,116.620 35.600,116.400 35.600 C 116.180 35.600,116.000 35.949,116.000 36.376 C 116.000 36.803,115.820 37.264,115.600 37.400 C 115.380 37.536,115.200 38.087,115.200 38.624 C 115.200 39.161,115.020 39.600,114.800 39.600 C 114.580 39.600,114.400 40.140,114.400 40.800 C 114.400 41.460,114.220 42.000,114.000 42.000 C 113.780 42.000,113.600 42.360,113.600 42.800 C 113.600 43.240,113.420 43.600,113.200 43.600 C 112.980 43.600,112.800 44.050,112.800 44.600 C 112.800 45.150,112.653 45.600,112.472 45.600 C 112.292 45.600,111.900 46.500,111.600 47.600 C 111.300 48.700,110.908 49.600,110.728 49.600 C 110.547 49.600,110.400 49.962,110.400 50.405 C 110.400 50.848,110.226 51.523,110.013 51.905 C 109.486 52.849,108.400 56.290,108.400 57.014 C 108.400 57.336,108.220 57.600,108.000 57.600 C 107.780 57.600,107.600 58.050,107.600 58.600 C 107.600 59.150,107.420 59.600,107.200 59.600 C 106.980 59.600,106.800 59.949,106.800 60.376 C 106.800 60.803,106.620 61.264,106.400 61.400 C 106.180 61.536,106.000 62.087,106.000 62.624 C 106.000 63.161,105.820 63.600,105.600 63.600 C 105.380 63.600,105.200 64.050,105.200 64.600 C 105.200 65.150,105.020 65.600,104.800 65.600 C 104.580 65.600,104.400 66.050,104.400 66.600 C 104.400 67.150,104.220 67.600,104.000 67.600 C 103.780 67.600,103.600 68.140,103.600 68.800 C 103.600 69.460,103.420 70.000,103.200 70.000 C 102.980 70.000,102.800 70.360,102.800 70.800 C 102.800 71.240,102.620 71.600,102.400 71.600 C 102.180 71.600,102.000 72.140,102.000 72.800 C 102.000 73.460,101.820 74.000,101.600 74.000 C 101.380 74.000,101.200 74.360,101.200 74.800 C 101.200 75.240,101.020 75.600,100.800 75.600 C 100.580 75.600,100.400 76.050,100.400 76.600 C 100.400 77.150,100.220 77.600,100.000 77.600 C 99.780 77.600,99.600 78.039,99.600 78.576 C 99.600 79.113,99.420 79.664,99.200 79.800 C 98.980 79.936,98.800 80.397,98.800 80.824 C 98.800 81.251,98.620 81.600,98.400 81.600 C 98.180 81.600,98.000 82.140,98.000 82.800 C 98.000 83.460,97.820 84.000,97.600 84.000 C 97.380 84.000,97.200 84.360,97.200 84.800 C 97.200 85.240,97.020 85.600,96.800 85.600 C 96.580 85.600,96.400 86.140,96.400 86.800 C 96.400 87.460,96.259 88.000,96.087 88.000 C 95.915 88.000,95.526 88.855,95.222 89.900 C 94.918 90.945,94.564 91.890,94.435 92.000 C 94.094 92.291,92.770 95.921,92.283 97.900 C 92.053 98.835,91.716 99.600,91.533 99.600 C 91.350 99.600,91.200 100.140,91.200 100.800 C 91.200 101.460,91.020 102.000,90.800 102.000 C 90.580 102.000,90.400 102.360,90.400 102.800 C 90.400 103.240,90.220 103.600,90.000 103.600 C 89.780 103.600,89.600 104.140,89.600 104.800 C 89.600 105.460,89.420 106.000,89.200 106.000 C 88.980 106.000,88.800 106.355,88.800 106.788 C 88.800 107.221,88.440 108.217,88.000 109.000 C 87.560 109.783,87.200 110.779,87.200 111.212 C 87.200 111.645,87.020 112.000,86.800 112.000 C 86.580 112.000,86.400 112.360,86.400 112.800 C 86.400 113.240,86.220 113.600,86.000 113.600 C 85.780 113.600,85.600 114.140,85.600 114.800 C 85.600 115.460,85.420 116.000,85.200 116.000 C 84.980 116.000,84.800 116.349,84.800 116.776 C 84.800 117.203,84.620 117.664,84.400 117.800 C 84.180 117.936,84.000 118.487,84.000 119.024 C 84.000 119.561,83.820 120.000,83.600 120.000 C 83.380 120.000,83.200 120.439,83.200 120.976 C 83.200 121.513,83.020 122.064,82.800 122.200 C 82.580 122.336,82.400 122.797,82.400 123.224 C 82.400 123.651,82.220 124.000,82.000 124.000 C 81.780 124.000,81.600 124.439,81.600 124.976 C 81.600 125.513,81.420 126.064,81.200 126.200 C 80.980 126.336,80.800 126.797,80.800 127.224 C 80.800 127.651,80.620 128.000,80.400 128.000 C 80.180 128.000,80.000 128.450,80.000 129.000 C 80.000 129.550,79.820 130.000,79.600 130.000 C 79.380 130.000,79.200 130.439,79.200 130.976 C 79.200 131.513,79.020 132.064,78.800 132.200 C 78.580 132.336,78.400 132.797,78.400 133.224 C 78.400 133.651,78.220 134.000,78.000 134.000 C 77.780 134.000,77.600 134.540,77.600 135.200 C 77.600 135.860,77.459 136.400,77.287 136.400 C 77.115 136.400,76.723 137.251,76.416 138.291 C 76.109 139.332,75.621 140.637,75.331 141.191 C 75.042 141.746,74.804 142.605,74.802 143.100 C 74.801 143.595,74.620 144.000,74.400 144.000 C 74.180 144.000,74.000 144.450,74.000 145.000 C 74.000 145.550,73.820 146.000,73.600 146.000 C 73.380 146.000,73.200 146.450,73.200 147.000 C 73.200 147.550,73.020 148.000,72.800 148.000 C 72.580 148.000,72.400 148.540,72.400 149.200 C 72.400 149.860,72.220 150.400,72.000 150.400 C 71.780 150.400,71.600 150.760,71.600 151.200 C 71.600 151.640,71.420 152.000,71.200 152.000 C 70.980 152.000,70.800 152.540,70.800 153.200 C 70.800 153.860,70.620 154.400,70.400 154.400 C 70.180 154.400,70.000 154.760,70.000 155.200 C 70.000 155.640,69.820 156.000,69.600 156.000 C 69.380 156.000,69.200 156.540,69.200 157.200 C 69.200 157.860,69.020 158.400,68.800 158.400 C 68.580 158.400,68.400 158.749,68.400 159.176 C 68.400 159.603,68.220 160.064,68.000 160.200 C 67.780 160.336,67.600 160.797,67.600 161.224 C 67.600 161.651,67.420 162.000,67.200 162.000 C 66.980 162.000,66.800 162.540,66.800 163.200 C 66.800 163.860,66.620 164.400,66.400 164.400 C 66.180 164.400,66.000 164.760,66.000 165.200 C 66.000 165.640,65.820 166.000,65.600 166.000 C 65.380 166.000,65.200 166.540,65.200 167.200 C 65.200 167.860,65.020 168.400,64.800 168.400 C 64.580 168.400,64.400 168.749,64.400 169.176 C 64.400 169.603,64.220 170.064,64.000 170.200 C 63.780 170.336,63.600 170.887,63.600 171.424 C 63.600 171.961,63.453 172.400,63.272 172.400 C 63.092 172.400,62.700 173.300,62.400 174.400 C 62.100 175.500,61.708 176.400,61.528 176.400 C 61.347 176.400,61.200 176.726,61.200 177.125 C 61.200 177.524,60.840 178.595,60.400 179.506 C 59.960 180.416,59.600 181.329,59.600 181.535 C 59.600 181.740,59.331 182.424,59.002 183.054 C 58.674 183.684,58.404 184.695,58.402 185.300 C 58.401 185.905,58.220 186.400,58.000 186.400 C 57.780 186.400,57.600 186.749,57.600 187.176 C 57.600 187.603,57.420 188.064,57.200 188.200 C 56.980 188.336,56.800 188.887,56.800 189.424 C 56.800 189.961,56.620 190.400,56.400 190.400 C 56.180 190.400,56.000 190.850,56.000 191.400 C 56.000 191.950,55.820 192.400,55.600 192.400 C 55.380 192.400,55.200 192.749,55.200 193.176 C 55.200 193.603,55.020 194.064,54.800 194.200 C 54.580 194.336,54.400 194.887,54.400 195.424 C 54.400 195.961,54.220 196.400,54.000 196.400 C 53.780 196.400,53.600 196.749,53.600 197.176 C 53.600 197.603,53.420 198.064,53.200 198.200 C 52.980 198.336,52.800 198.887,52.800 199.424 C 52.800 199.961,52.653 200.400,52.472 200.400 C 52.292 200.400,51.900 201.300,51.600 202.400 C 51.300 203.500,50.908 204.400,50.728 204.400 C 50.547 204.400,50.400 204.940,50.400 205.600 C 50.400 206.260,50.220 206.800,50.000 206.800 C 49.780 206.800,49.600 207.160,49.600 207.600 C 49.600 208.040,49.420 208.400,49.200 208.400 C 48.980 208.400,48.800 208.850,48.800 209.400 C 48.800 209.950,48.620 210.400,48.400 210.400 C 48.180 210.400,48.000 210.850,48.000 211.400 C 48.000 211.950,47.820 212.400,47.600 212.400 C 47.380 212.400,47.200 212.850,47.200 213.400 C 47.200 213.950,47.020 214.400,46.800 214.400 C 46.580 214.400,46.400 214.940,46.400 215.600 C 46.400 216.260,46.220 216.800,46.000 216.800 C 45.780 216.800,45.600 217.160,45.600 217.600 C 45.600 218.040,45.420 218.400,45.200 218.400 C 44.980 218.400,44.800 218.940,44.800 219.600 C 44.800 220.260,44.653 220.800,44.472 220.800 C 44.292 220.800,43.900 221.700,43.600 222.800 C 43.300 223.900,42.924 224.800,42.763 224.800 C 42.602 224.800,42.349 225.519,42.200 226.398 C 42.052 227.277,41.766 228.097,41.565 228.222 C 41.364 228.346,41.200 228.876,41.200 229.400 C 41.200 229.924,41.020 230.464,40.800 230.600 C 40.580 230.736,40.400 231.197,40.400 231.624 C 40.400 232.051,40.220 232.400,40.000 232.400 C 39.780 232.400,39.600 232.940,39.600 233.600 C 39.600 234.260,39.420 234.800,39.200 234.800 C 38.980 234.800,38.800 235.160,38.800 235.600 C 38.800 236.040,38.620 236.400,38.400 236.400 C 38.180 236.400,38.000 236.940,38.000 237.600 C 38.000 238.260,37.820 238.800,37.600 238.800 C 37.380 238.800,37.200 239.160,37.200 239.600 C 37.200 240.040,37.020 240.400,36.800 240.400 C 36.580 240.400,36.400 240.839,36.400 241.376 C 36.400 241.913,36.220 242.464,36.000 242.600 C 35.780 242.736,35.600 243.287,35.600 243.824 C 35.600 244.361,35.420 244.800,35.200 244.800 C 34.980 244.800,34.800 245.160,34.800 245.600 C 34.800 246.040,34.620 246.400,34.400 246.400 C 34.180 246.400,34.000 246.940,34.000 247.600 C 34.000 248.260,33.820 248.800,33.600 248.800 C 33.380 248.800,33.200 249.149,33.200 249.576 C 33.200 250.003,33.020 250.464,32.800 250.600 C 32.580 250.736,32.400 251.287,32.400 251.824 C 32.400 252.361,32.253 252.800,32.072 252.800 C 31.892 252.800,31.500 253.700,31.200 254.800 C 30.900 255.900,30.508 256.800,30.328 256.800 C 30.147 256.800,30.000 257.155,30.000 257.588 C 30.000 258.021,29.640 259.017,29.200 259.800 C 28.760 260.583,28.400 261.579,28.400 262.012 C 28.400 262.445,28.259 262.800,28.087 262.800 C 27.915 262.800,27.525 263.655,27.220 264.700 C 26.915 265.745,26.529 266.870,26.363 267.200 C 25.621 268.672,24.800 271.301,24.800 272.208 C 24.800 272.754,24.620 273.200,24.400 273.200 C 24.180 273.200,24.000 273.560,24.000 274.000 C 24.000 274.440,23.820 274.800,23.600 274.800 C 23.380 274.800,23.200 275.250,23.200 275.800 C 23.200 276.350,23.020 276.800,22.800 276.800 C 22.580 276.800,22.400 277.149,22.400 277.576 C 22.400 278.003,22.220 278.464,22.000 278.600 C 21.780 278.736,21.600 279.287,21.600 279.824 C 21.600 280.361,21.420 280.800,21.200 280.800 C 20.980 280.800,20.800 281.250,20.800 281.800 C 20.800 282.350,20.620 282.800,20.400 282.800 C 20.180 282.800,20.000 283.250,20.000 283.800 C 20.000 284.350,19.820 284.800,19.600 284.800 C 19.380 284.800,19.200 285.340,19.200 286.000 C 19.200 286.660,19.020 287.200,18.800 287.200 C 18.580 287.200,18.400 287.560,18.400 288.000 C 18.400 288.440,18.220 288.800,18.000 288.800 C 17.780 288.800,17.600 289.340,17.600 290.000 C 17.600 290.660,17.420 291.200,17.200 291.200 C 16.980 291.200,16.800 291.560,16.800 292.000 C 16.800 292.440,16.620 292.800,16.400 292.800 C 16.180 292.800,16.000 293.250,16.000 293.800 C 16.000 294.350,15.820 294.800,15.600 294.800 C 15.380 294.800,15.200 295.239,15.200 295.776 C 15.200 296.313,15.020 296.864,14.800 297.000 C 14.580 297.136,14.400 297.597,14.400 298.024 C 14.400 298.451,14.220 298.800,14.000 298.800 C 13.780 298.800,13.600 299.340,13.600 300.000 C 13.600 300.660,13.420 301.200,13.200 301.200 C 12.980 301.200,12.800 301.549,12.800 301.976 C 12.800 302.403,12.620 302.864,12.400 303.000 C 12.180 303.136,12.000 303.687,12.000 304.224 C 12.000 304.761,11.859 305.200,11.687 305.200 C 11.515 305.200,11.126 306.055,10.822 307.100 C 10.518 308.145,10.162 309.090,10.031 309.200 C 9.617 309.548,8.396 313.362,8.398 314.300 C 8.399 314.795,8.220 315.200,8.000 315.200 C 7.780 315.200,7.600 315.560,7.600 316.000 C 7.600 316.440,7.420 316.800,7.200 316.800 C 6.980 316.800,6.800 317.340,6.800 318.000 C 6.800 318.660,6.620 319.200,6.400 319.200 C 6.180 319.200,6.000 319.560,6.000 320.000 C 6.000 320.440,5.820 320.800,5.600 320.800 C 5.380 320.800,5.200 321.340,5.200 322.000 C 5.200 322.660,5.020 323.200,4.800 323.200 C 4.580 323.200,4.400 323.650,4.400 324.200 C 4.400 324.750,4.220 325.200,4.000 325.200 C 3.780 325.200,3.600 325.549,3.600 325.976 C 3.600 326.403,3.420 326.864,3.200 327.000 C 2.980 327.136,2.800 327.687,2.800 328.224 C 2.800 328.761,2.620 329.200,2.400 329.200 C 2.180 329.200,2.000 329.560,2.000 330.000 C 2.000 330.440,1.820 330.800,1.600 330.800 C 1.380 330.800,1.200 331.325,1.200 331.967 C 1.200 332.608,0.990 333.203,0.732 333.289 C 0.443 333.386,0.195 334.772,0.082 336.923 L -0.100 340.400 34.550 340.400 C 68.933 340.400,69.200 340.394,69.200 339.600 C 69.200 339.160,69.380 338.800,69.600 338.800 C 69.820 338.800,70.000 338.438,70.000 337.995 C 70.000 337.552,70.180 336.832,70.400 336.395 C 70.620 335.958,70.980 335.242,71.200 334.805 C 71.420 334.368,71.600 333.648,71.600 333.205 C 71.600 332.762,71.780 332.400,72.000 332.400 C 72.220 332.400,72.400 331.875,72.400 331.233 C 72.400 330.592,72.535 330.007,72.700 329.933 C 73.123 329.745,75.200 323.560,75.200 322.488 C 75.200 322.000,75.380 321.600,75.600 321.600 C 75.820 321.600,76.000 321.251,76.000 320.824 C 76.000 320.397,76.180 319.936,76.400 319.800 C 76.620 319.664,76.800 319.113,76.800 318.576 C 76.800 318.039,76.980 317.600,77.200 317.600 C 77.420 317.600,77.600 317.060,77.600 316.400 C 77.600 315.740,77.780 315.200,78.000 315.200 C 78.220 315.200,78.400 314.660,78.400 314.000 C 78.400 313.340,78.580 312.800,78.800 312.800 C 79.020 312.800,79.200 312.440,79.200 312.000 C 79.200 311.560,79.380 311.200,79.600 311.200 C 79.820 311.200,80.000 310.660,80.000 310.000 C 80.000 309.340,80.180 308.800,80.400 308.800 C 80.620 308.800,80.800 308.350,80.800 307.800 C 80.800 307.250,80.980 306.800,81.200 306.800 C 81.420 306.800,81.600 306.260,81.600 305.600 C 81.600 304.940,81.780 304.400,82.000 304.400 C 82.220 304.400,82.400 304.051,82.400 303.624 C 82.400 303.197,82.580 302.736,82.800 302.600 C 83.020 302.464,83.200 301.913,83.200 301.376 C 83.200 300.839,83.380 300.400,83.600 300.400 C 83.820 300.400,84.000 299.860,84.000 299.200 C 84.000 298.540,84.180 298.000,84.400 298.000 C 84.620 298.000,84.800 297.460,84.800 296.800 C 84.800 296.140,84.980 295.600,85.200 295.600 C 85.420 295.600,85.600 295.251,85.600 294.824 C 85.600 294.397,85.780 293.936,86.000 293.800 C 86.220 293.664,86.400 293.113,86.400 292.576 C 86.400 292.039,86.580 291.600,86.800 291.600 C 87.020 291.600,87.200 291.161,87.200 290.624 C 87.200 290.087,87.380 289.536,87.600 289.400 C 87.820 289.264,88.000 288.713,88.000 288.176 C 88.000 287.639,88.147 287.200,88.328 287.200 C 88.508 287.200,88.904 286.289,89.207 285.175 C 89.510 284.061,89.903 283.060,90.079 282.951 C 90.256 282.842,90.400 282.324,90.400 281.800 C 90.400 281.276,90.559 280.749,90.754 280.629 C 90.948 280.508,91.229 279.598,91.378 278.605 C 91.527 277.612,91.818 276.800,92.025 276.800 C 92.231 276.800,92.400 276.361,92.400 275.824 C 92.400 275.287,92.580 274.736,92.800 274.600 C 93.020 274.464,93.200 273.913,93.200 273.376 C 93.200 272.839,93.380 272.400,93.600 272.400 C 93.820 272.400,94.000 271.860,94.000 271.200 C 94.000 270.540,94.180 270.000,94.400 270.000 C 94.620 270.000,94.800 269.676,94.800 269.280 C 94.800 267.549,92.956 267.600,155.656 267.600 C 195.156 267.600,215.637 267.464,215.800 267.200 C 215.936 266.980,216.419 266.800,216.873 266.800 C 217.328 266.800,219.792 266.157,222.350 265.370 C 226.632 264.053,228.081 263.639,231.400 262.782 C 232.060 262.612,233.243 262.276,234.028 262.036 C 234.814 261.796,235.838 261.600,236.305 261.600 C 236.771 261.600,237.252 261.439,237.374 261.242 C 237.582 260.906,238.301 260.754,242.500 260.159 C 243.435 260.026,244.371 259.756,244.580 259.559 C 244.789 259.362,245.633 259.200,246.456 259.200 C 247.279 259.200,248.064 259.020,248.200 258.800 C 248.336 258.580,249.236 258.400,250.200 258.400 C 251.164 258.400,252.064 258.220,252.200 258.000 C 252.336 257.780,253.236 257.600,254.200 257.600 C 255.164 257.600,256.064 257.420,256.200 257.200 C 256.336 256.980,257.236 256.800,258.200 256.800 C 259.164 256.800,260.064 256.620,260.200 256.400 C 260.336 256.180,261.236 256.000,262.200 256.000 C 263.164 256.000,264.064 255.820,264.200 255.600 C 264.336 255.380,265.211 255.200,266.144 255.200 C 267.077 255.200,268.011 255.038,268.220 254.841 C 268.429 254.644,269.320 254.385,270.200 254.267 C 271.080 254.149,272.700 253.848,273.800 253.600 C 274.900 253.352,276.476 253.051,277.303 252.932 C 278.129 252.813,278.905 252.555,279.026 252.358 C 279.148 252.161,279.809 252.000,280.495 252.000 C 281.182 252.000,282.296 251.827,282.972 251.616 C 283.647 251.405,285.055 251.005,286.100 250.729 C 287.781 250.283,288.689 249.600,287.600 249.600 C 287.380 249.600,287.200 249.240,287.200 248.800 C 287.200 248.360,287.020 248.000,286.800 248.000 C 286.580 248.000,286.400 247.561,286.400 247.024 C 286.400 246.487,286.220 245.936,286.000 245.800 C 285.780 245.664,285.600 245.203,285.600 244.776 C 285.600 244.349,285.420 244.000,285.200 244.000 C 284.980 244.000,284.800 243.550,284.800 243.000 C 284.800 242.450,284.620 242.000,284.400 242.000 C 284.180 242.000,284.000 241.651,284.000 241.224 C 284.000 240.797,283.820 240.336,283.600 240.200 C 283.380 240.064,283.200 239.513,283.200 238.976 C 283.200 238.439,283.020 238.000,282.800 238.000 C 282.580 238.000,282.400 237.651,282.400 237.224 C 282.400 236.797,282.220 236.336,282.000 236.200 C 281.780 236.064,281.600 235.513,281.600 234.976 C 281.600 234.439,281.420 234.000,281.200 234.000 C 280.980 234.000,280.800 233.651,280.800 233.224 C 280.800 232.797,280.620 232.336,280.400 232.200 C 280.180 232.064,280.000 231.513,280.000 230.976 C 280.000 230.439,279.820 230.000,279.600 230.000 C 279.380 230.000,279.200 229.728,279.200 229.395 C 279.200 229.062,279.041 228.477,278.847 228.095 C 278.652 227.713,278.271 226.860,278.000 226.200 C 277.729 225.540,277.348 224.687,277.153 224.305 C 276.959 223.923,276.800 223.338,276.800 223.005 C 276.800 222.672,276.620 222.400,276.400 222.400 C 276.180 222.400,276.000 221.961,276.000 221.424 C 276.000 220.887,275.840 220.349,275.645 220.228 C 275.450 220.107,275.168 219.355,275.018 218.555 C 274.868 217.756,274.599 216.809,274.419 216.451 C 274.071 215.755,273.289 213.910,272.786 212.600 C 272.618 212.160,272.102 210.947,271.640 209.904 C 271.178 208.862,270.800 207.737,270.800 207.404 C 270.800 207.072,270.620 206.800,270.400 206.800 C 270.180 206.800,270.000 206.453,270.000 206.029 C 270.000 201.657,253.343 205.000,246.227 210.800 C 241.178 214.915,236.334 222.055,233.608 229.400 C 233.445 229.840,233.011 230.891,232.645 231.736 L 231.978 233.273 229.889 233.050 C 225.267 232.556,223.783 232.306,223.420 231.961 C 223.211 231.763,222.187 231.600,221.144 231.600 C 220.101 231.600,219.136 231.420,219.000 231.200 C 218.864 230.980,217.874 230.800,216.800 230.800 C 215.726 230.800,214.736 230.620,214.600 230.400 C 214.464 230.180,213.474 230.000,212.400 230.000 C 211.326 230.000,210.336 229.820,210.200 229.600 C 210.064 229.380,209.074 229.200,208.000 229.200 C 206.926 229.200,205.936 229.020,205.800 228.800 C 205.664 228.580,204.764 228.400,203.800 228.400 C 202.836 228.400,201.936 228.220,201.800 228.000 C 201.664 227.780,200.674 227.600,199.600 227.600 C 198.526 227.600,197.536 227.420,197.400 227.200 C 197.264 226.980,196.274 226.800,195.200 226.800 C 194.126 226.800,193.136 226.620,193.000 226.400 C 192.864 226.180,191.874 226.000,190.800 226.000 C 189.726 226.000,188.736 225.820,188.600 225.600 C 188.464 225.380,187.474 225.200,186.400 225.200 C 185.326 225.200,184.336 225.020,184.200 224.800 C 184.064 224.580,183.074 224.400,182.000 224.400 C 180.926 224.400,179.936 224.220,179.800 224.000 C 179.664 223.780,178.798 223.594,177.876 223.587 C 175.888 223.572,174.381 222.659,175.121 221.919 C 175.385 221.655,175.600 220.936,175.600 220.320 C 175.600 219.704,175.780 219.200,176.000 219.200 C 176.220 219.200,176.400 218.671,176.400 218.024 C 176.400 217.377,176.580 216.736,176.800 216.600 C 177.020 216.464,177.200 215.949,177.200 215.456 C 177.200 214.963,177.371 214.389,177.580 214.180 C 177.788 213.971,178.081 213.035,178.231 212.100 L 178.502 210.400 147.171 210.400 C 122.802 210.400,115.947 210.293,116.320 209.920 C 116.584 209.656,116.800 209.116,116.800 208.720 C 116.800 208.324,116.980 208.000,117.200 208.000 C 117.420 208.000,117.600 207.561,117.600 207.024 C 117.600 206.487,117.780 205.936,118.000 205.800 C 118.220 205.664,118.400 205.113,118.400 204.576 C 118.400 204.039,118.580 203.600,118.800 203.600 C 119.020 203.600,119.200 203.060,119.200 202.400 C 119.200 201.740,119.380 201.200,119.600 201.200 C 119.820 201.200,120.000 200.851,120.000 200.424 C 120.000 199.997,120.180 199.536,120.400 199.400 C 120.620 199.264,120.800 198.713,120.800 198.176 C 120.800 197.639,120.980 197.200,121.200 197.200 C 121.420 197.200,121.600 196.660,121.600 196.000 C 121.600 195.340,121.780 194.800,122.000 194.800 C 122.220 194.800,122.400 194.438,122.400 193.995 C 122.400 193.552,122.564 192.877,122.764 192.495 C 123.583 190.932,124.828 187.366,125.059 185.923 C 125.194 185.076,125.461 184.286,125.653 184.168 C 125.844 184.049,126.000 183.603,126.000 183.176 C 126.000 182.749,126.180 182.400,126.400 182.400 C 126.620 182.400,126.800 181.860,126.800 181.200 C 126.800 180.540,126.980 180.000,127.200 180.000 C 127.420 180.000,127.600 179.460,127.600 178.800 C 127.600 178.140,127.780 177.600,128.000 177.600 C 128.220 177.600,128.400 177.251,128.400 176.824 C 128.400 176.397,128.580 175.936,128.800 175.800 C 129.020 175.664,129.200 175.113,129.200 174.576 C 129.200 174.039,129.380 173.600,129.600 173.600 C 129.820 173.600,130.000 173.150,130.000 172.600 C 130.000 172.050,130.180 171.600,130.400 171.600 C 130.620 171.600,130.800 171.060,130.800 170.400 C 130.800 169.740,130.980 169.200,131.200 169.200 C 131.420 169.200,131.600 168.761,131.600 168.224 C 131.600 167.687,131.780 167.136,132.000 167.000 C 132.220 166.864,132.400 166.403,132.400 165.976 C 132.400 165.549,132.580 165.200,132.800 165.200 C 133.020 165.200,133.200 164.660,133.200 164.000 C 133.200 163.340,133.380 162.800,133.600 162.800 C 133.820 162.800,134.000 162.260,134.000 161.600 C 134.000 160.940,134.180 160.400,134.400 160.400 C 134.620 160.400,134.800 160.051,134.800 159.624 C 134.800 159.197,134.980 158.736,135.200 158.600 C 135.420 158.464,135.600 157.913,135.600 157.376 C 135.600 156.839,135.780 156.400,136.000 156.400 C 136.220 156.400,136.400 155.961,136.400 155.424 C 136.400 154.887,136.580 154.336,136.800 154.200 C 137.020 154.064,137.200 153.513,137.200 152.976 C 137.200 152.439,137.380 152.000,137.600 152.000 C 137.820 152.000,138.000 151.561,138.000 151.024 C 138.000 150.487,138.144 149.958,138.321 149.849 C 138.497 149.740,138.893 148.728,139.200 147.600 C 139.507 146.472,139.903 145.460,140.079 145.351 C 140.256 145.242,140.400 144.713,140.400 144.176 C 140.400 143.639,140.569 143.200,140.775 143.200 C 140.982 143.200,141.273 142.388,141.422 141.395 C 141.571 140.402,141.852 139.492,142.046 139.371 C 142.241 139.251,142.400 138.713,142.400 138.176 C 142.400 137.639,142.580 137.200,142.800 137.200 C 143.020 137.200,143.200 136.660,143.200 136.000 C 143.200 135.340,143.380 134.800,143.600 134.800 C 143.820 134.800,144.000 134.350,144.000 133.800 C 144.000 133.250,144.180 132.800,144.400 132.800 C 144.620 132.800,144.800 132.350,144.800 131.800 C 144.800 131.250,144.980 130.800,145.200 130.800 C 145.420 130.800,145.600 130.260,145.600 129.600 C 145.600 128.940,145.780 128.400,146.000 128.400 C 146.220 128.400,146.400 127.860,146.400 127.200 C 146.400 126.540,146.580 126.000,146.800 126.000 C 147.020 126.000,147.200 125.728,147.200 125.395 C 147.200 125.062,147.380 124.432,147.600 123.995 C 147.820 123.558,148.180 122.842,148.400 122.405 C 148.620 121.968,148.800 121.248,148.800 120.805 C 148.800 120.362,148.980 120.000,149.200 120.000 C 149.420 120.000,149.600 119.460,149.600 118.800 C 149.600 118.140,149.780 117.600,150.000 117.600 C 150.220 117.600,150.400 117.161,150.400 116.624 C 150.400 116.087,150.580 115.536,150.800 115.400 C 151.020 115.264,151.200 114.803,151.200 114.376 C 151.200 113.949,151.380 113.600,151.600 113.600 C 151.820 113.600,152.000 113.060,152.000 112.400 C 152.000 111.740,152.180 111.200,152.400 111.200 C 152.620 111.200,152.800 110.660,152.800 110.000 C 152.800 109.340,152.980 108.800,153.200 108.800 C 153.420 108.800,153.600 108.528,153.600 108.195 C 153.600 107.862,153.808 107.187,154.062 106.695 C 155.056 104.774,155.200 104.384,155.200 103.629 C 155.200 103.199,155.380 102.736,155.600 102.600 C 155.820 102.464,156.000 101.913,156.000 101.376 C 156.000 100.839,156.180 100.400,156.400 100.400 C 156.620 100.400,156.800 99.961,156.800 99.424 C 156.800 98.887,156.957 98.350,157.148 98.232 C 157.340 98.114,157.605 97.473,157.738 96.808 C 158.118 94.912,158.531 95.354,159.600 98.800 C 160.146 100.560,160.729 102.000,160.896 102.000 C 161.063 102.000,161.200 102.362,161.200 102.805 C 161.200 103.248,161.359 103.923,161.553 104.305 C 161.748 104.687,162.129 105.540,162.400 106.200 C 162.671 106.860,163.052 107.713,163.247 108.095 C 163.441 108.477,163.600 109.152,163.600 109.595 C 163.600 110.038,163.780 110.400,164.000 110.400 C 164.220 110.400,164.400 110.940,164.400 111.600 C 164.400 112.260,164.580 112.800,164.800 112.800 C 165.020 112.800,165.200 113.149,165.200 113.576 C 165.200 114.003,165.380 114.464,165.600 114.600 C 165.820 114.736,166.000 115.287,166.000 115.824 C 166.000 116.361,166.180 116.800,166.400 116.800 C 166.620 116.800,166.800 117.340,166.800 118.000 C 166.800 118.660,166.980 119.200,167.200 119.200 C 167.420 119.200,167.600 119.549,167.600 119.976 C 167.600 120.403,167.780 120.864,168.000 121.000 C 168.220 121.136,168.400 121.687,168.400 122.224 C 168.400 122.761,168.580 123.200,168.800 123.200 C 169.020 123.200,169.200 123.650,169.200 124.200 C 169.200 124.750,169.380 125.200,169.600 125.200 C 169.820 125.200,170.000 125.740,170.000 126.400 C 170.000 127.060,170.180 127.600,170.400 127.600 C 170.620 127.600,170.800 127.960,170.800 128.400 C 170.800 128.840,170.980 129.200,171.200 129.200 C 171.420 129.200,171.600 129.740,171.600 130.400 C 171.600 131.060,171.780 131.600,172.000 131.600 C 172.220 131.600,172.400 132.140,172.400 132.800 C 172.400 133.460,172.580 134.000,172.800 134.000 C 173.020 134.000,173.200 134.360,173.200 134.800 C 173.200 135.240,173.380 135.600,173.600 135.600 C 173.820 135.600,174.000 136.140,174.000 136.800 C 174.000 137.460,174.139 138.000,174.309 138.000 C 174.596 138.000,175.327 140.306,175.863 142.900 C 175.988 143.505,176.250 144.000,176.445 144.000 C 176.640 144.000,176.800 144.362,176.800 144.805 C 176.800 145.248,176.980 145.968,177.200 146.405 C 177.420 146.842,177.780 147.558,178.000 147.995 C 178.220 148.432,178.400 149.152,178.400 149.595 C 178.400 150.038,178.580 150.400,178.800 150.400 C 179.020 150.400,179.200 150.762,179.200 151.205 C 179.200 151.648,179.359 152.323,179.553 152.705 C 179.748 153.087,180.129 153.940,180.400 154.600 C 180.671 155.260,181.052 156.113,181.247 156.495 C 181.441 156.877,181.600 157.552,181.600 157.995 C 181.600 158.438,181.780 158.800,182.000 158.800 C 182.220 158.800,182.400 159.340,182.400 160.000 C 182.400 160.660,182.580 161.200,182.800 161.200 C 183.020 161.200,183.200 161.560,183.200 162.000 C 183.200 162.440,183.380 162.800,183.600 162.800 C 183.820 162.800,184.000 163.340,184.000 164.000 C 184.000 164.660,184.180 165.200,184.400 165.200 C 184.620 165.200,184.800 165.740,184.800 166.400 C 184.800 167.060,184.980 167.600,185.200 167.600 C 185.420 167.600,185.600 167.949,185.600 168.376 C 185.600 168.803,185.780 169.264,186.000 169.400 C 186.220 169.536,186.400 170.087,186.400 170.624 C 186.400 171.161,186.580 171.600,186.800 171.600 C 187.020 171.600,187.200 172.050,187.200 172.600 C 187.200 173.150,187.380 173.600,187.600 173.600 C 187.820 173.600,188.000 174.039,188.000 174.576 C 188.000 175.113,188.180 175.664,188.400 175.800 C 188.620 175.936,188.800 176.397,188.800 176.824 C 188.800 177.251,188.980 177.600,189.200 177.600 C 189.420 177.600,189.600 178.140,189.600 178.800 C 189.600 179.460,189.780 180.000,190.000 180.000 C 190.220 180.000,190.400 180.525,190.400 181.167 C 190.400 181.808,190.543 182.393,190.719 182.467 C 190.894 182.540,191.312 183.473,191.648 184.541 L 192.258 186.481 193.629 184.960 C 197.808 180.324,204.904 173.681,206.148 173.240 C 206.397 173.152,206.690 172.959,206.800 172.810 C 207.773 171.496,219.621 164.973,222.400 164.220 C 223.444 163.938,224.912 163.355,226.095 162.753 C 226.477 162.559,227.242 162.400,227.795 162.400 C 228.348 162.400,228.800 162.220,228.800 162.000 C 228.800 161.780,229.329 161.600,229.976 161.600 C 230.623 161.600,231.264 161.420,231.400 161.200 C 231.536 160.980,232.166 160.800,232.800 160.800 C 233.434 160.800,234.064 160.620,234.200 160.400 C 234.336 160.180,235.157 160.000,236.024 160.000 C 236.891 160.000,237.600 159.820,237.600 159.600 C 237.600 159.380,238.399 159.200,239.376 159.200 C 240.353 159.200,241.264 159.020,241.400 158.800 C 241.536 158.580,242.436 158.400,243.400 158.400 C 244.364 158.400,245.264 158.220,245.400 158.000 C 245.536 157.780,246.717 157.600,248.024 157.600 C 250.133 157.600,250.400 157.510,250.400 156.800 C 250.400 156.360,250.220 156.000,250.000 156.000 C 249.780 156.000,249.600 155.460,249.600 154.800 C 249.600 154.140,249.420 153.600,249.200 153.600 C 248.980 153.600,248.800 153.240,248.800 152.800 C 248.800 152.360,248.620 152.000,248.400 152.000 C 248.180 152.000,248.000 151.460,248.000 150.800 C 248.000 150.140,247.820 149.600,247.600 149.600 C 247.380 149.600,247.200 149.240,247.200 148.800 C 247.200 148.360,247.020 148.000,246.800 148.000 C 246.580 148.000,246.400 147.561,246.400 147.024 C 246.400 146.487,246.220 145.936,246.000 145.800 C 245.780 145.664,245.600 145.203,245.600 144.776 C 245.600 144.349,245.420 144.000,245.200 144.000 C 244.980 144.000,244.800 143.550,244.800 143.000 C 244.800 142.450,244.620 142.000,244.400 142.000 C 244.180 142.000,244.000 141.640,244.000 141.200 C 244.000 140.760,243.820 140.400,243.600 140.400 C 243.380 140.400,243.200 139.860,243.200 139.200 C 243.200 138.540,243.020 138.000,242.800 138.000 C 242.580 138.000,242.400 137.640,242.400 137.200 C 242.400 136.760,242.220 136.400,242.000 136.400 C 241.780 136.400,241.599 135.905,241.598 135.300 C 241.596 134.695,241.326 133.684,240.998 133.054 C 240.669 132.424,240.400 131.740,240.400 131.535 C 240.400 131.329,240.040 130.416,239.600 129.506 C 239.160 128.595,238.800 127.524,238.800 127.125 C 238.800 126.726,238.620 126.400,238.400 126.400 C 238.180 126.400,238.000 126.040,238.000 125.600 C 238.000 125.160,237.820 124.800,237.600 124.800 C 237.380 124.800,237.200 124.260,237.200 123.600 C 237.200 122.940,237.020 122.400,236.800 122.400 C 236.580 122.400,236.400 122.040,236.400 121.600 C 236.400 121.160,236.220 120.800,236.000 120.800 C 235.780 120.800,235.600 120.260,235.600 119.600 C 235.600 118.940,235.420 118.400,235.200 118.400 C 234.980 118.400,234.800 118.040,234.800 117.600 C 234.800 117.160,234.620 116.800,234.400 116.800 C 234.180 116.800,234.000 116.260,234.000 115.600 C 234.000 114.940,233.820 114.400,233.600 114.400 C 233.380 114.400,233.200 114.040,233.200 113.600 C 233.200 113.160,233.020 112.800,232.800 112.800 C 232.580 112.800,232.400 112.445,232.400 112.012 C 232.400 111.579,232.040 110.583,231.600 109.800 C 231.160 109.017,230.800 108.021,230.800 107.588 C 230.800 107.155,230.620 106.800,230.400 106.800 C 230.180 106.800,230.000 106.451,230.000 106.024 C 230.000 105.597,229.820 105.136,229.600 105.000 C 229.380 104.864,229.200 104.313,229.200 103.776 C 229.200 103.239,229.020 102.800,228.800 102.800 C 228.580 102.800,228.400 102.451,228.400 102.024 C 228.400 101.597,228.220 101.136,228.000 101.000 C 227.780 100.864,227.600 100.313,227.600 99.776 C 227.600 99.239,227.420 98.800,227.200 98.800 C 226.980 98.800,226.800 98.451,226.800 98.024 C 226.800 97.597,226.620 97.136,226.400 97.000 C 226.180 96.864,226.000 96.313,226.000 95.776 C 226.000 95.239,225.840 94.800,225.645 94.800 C 225.449 94.800,225.167 94.148,225.017 93.351 C 224.868 92.554,224.578 91.564,224.373 91.151 C 224.168 90.738,223.820 90.042,223.600 89.605 C 223.380 89.168,223.200 88.448,223.200 88.005 C 223.200 87.562,223.020 87.200,222.800 87.200 C 222.580 87.200,222.400 86.851,222.400 86.424 C 222.400 85.997,222.220 85.536,222.000 85.400 C 221.780 85.264,221.600 84.713,221.600 84.176 C 221.600 83.639,221.420 83.200,221.200 83.200 C 220.980 83.200,220.800 82.851,220.800 82.424 C 220.800 81.997,220.620 81.536,220.400 81.400 C 220.180 81.264,220.000 80.713,220.000 80.176 C 220.000 79.639,219.820 79.200,219.600 79.200 C 219.380 79.200,219.200 78.851,219.200 78.424 C 219.200 77.997,219.020 77.536,218.800 77.400 C 218.580 77.264,218.400 76.803,218.400 76.376 C 218.400 75.949,218.220 75.600,218.000 75.600 C 217.780 75.600,217.600 75.161,217.600 74.624 C 217.600 74.087,217.420 73.536,217.200 73.400 C 216.980 73.264,216.800 72.803,216.800 72.376 C 216.800 71.949,216.620 71.600,216.400 71.600 C 216.180 71.600,216.000 71.161,216.000 70.624 C 216.000 70.087,215.820 69.536,215.600 69.400 C 215.380 69.264,215.200 68.803,215.200 68.376 C 215.200 67.949,215.020 67.600,214.800 67.600 C 214.580 67.600,214.400 67.161,214.400 66.624 C 214.400 66.087,214.220 65.536,214.000 65.400 C 213.780 65.264,213.600 64.803,213.600 64.376 C 213.600 63.949,213.420 63.600,213.200 63.600 C 212.980 63.600,212.800 63.150,212.800 62.600 C 212.800 62.050,212.620 61.600,212.400 61.600 C 212.180 61.600,212.000 61.150,212.000 60.600 C 212.000 60.050,211.820 59.600,211.600 59.600 C 211.380 59.600,211.200 59.150,211.200 58.600 C 211.200 58.050,211.020 57.600,210.800 57.600 C 210.580 57.600,210.400 57.240,210.400 56.800 C 210.400 56.360,210.220 56.000,210.000 56.000 C 209.780 56.000,209.600 55.460,209.600 54.800 C 209.600 54.140,209.440 53.600,209.245 53.600 C 209.049 53.600,208.765 52.938,208.613 52.129 C 208.461 51.319,207.973 49.834,207.529 48.829 C 207.084 47.823,206.558 46.595,206.360 46.100 C 205.420 43.751,205.080 42.947,204.753 42.305 C 204.559 41.923,204.400 41.338,204.400 41.005 C 204.400 40.672,204.220 40.400,204.000 40.400 C 203.780 40.400,203.600 39.961,203.600 39.424 C 203.600 38.887,203.420 38.336,203.200 38.200 C 202.980 38.064,202.800 37.603,202.800 37.176 C 202.800 36.749,202.620 36.400,202.400 36.400 C 202.180 36.400,202.000 35.961,202.000 35.424 C 202.000 34.887,201.820 34.336,201.600 34.200 C 201.380 34.064,201.200 33.603,201.200 33.176 C 201.200 32.749,201.020 32.400,200.800 32.400 C 200.580 32.400,200.400 31.961,200.400 31.424 C 200.400 30.887,200.220 30.336,200.000 30.200 C 199.780 30.064,199.600 29.603,199.600 29.176 C 199.600 28.749,199.420 28.400,199.200 28.400 C 198.980 28.400,198.800 27.950,198.800 27.400 C 198.800 26.850,198.620 26.400,198.400 26.400 C 198.180 26.400,198.000 26.040,198.000 25.600 C 198.000 25.160,197.820 24.800,197.600 24.800 C 197.380 24.800,197.200 24.260,197.200 23.600 C 197.200 22.940,197.020 22.400,196.800 22.400 C 196.580 22.400,196.400 22.040,196.400 21.600 C 196.400 21.160,196.220 20.800,196.000 20.800 C 195.780 20.800,195.600 20.260,195.600 19.600 C 195.600 18.940,195.420 18.400,195.200 18.400 C 194.980 18.400,194.800 18.117,194.800 17.771 C 194.800 15.952,195.767 16.000,158.829 16.000 C 124.267 16.000,124.000 16.006,124.000 16.800 M299.600 287.623 C 298.830 287.804,297.390 288.136,296.400 288.359 C 295.410 288.582,293.556 289.043,292.280 289.382 C 291.005 289.722,289.530 290.000,289.004 290.000 C 288.478 290.000,287.948 290.161,287.826 290.358 C 287.705 290.555,286.839 290.829,285.903 290.967 C 284.966 291.106,283.480 291.323,282.600 291.451 C 281.720 291.578,280.829 291.844,280.620 292.041 C 280.411 292.238,279.567 292.400,278.744 292.400 C 277.921 292.400,277.136 292.580,277.000 292.800 C 276.864 293.020,276.054 293.200,275.200 293.200 C 274.346 293.200,273.536 293.380,273.400 293.600 C 273.264 293.820,272.544 294.000,271.800 294.000 C 271.056 294.000,270.336 294.180,270.200 294.400 C 270.064 294.620,269.344 294.800,268.600 294.800 C 267.856 294.800,267.136 294.980,267.000 295.200 C 266.864 295.420,266.144 295.600,265.400 295.600 C 264.656 295.600,263.936 295.780,263.800 296.000 C 263.664 296.220,263.034 296.400,262.400 296.400 C 261.766 296.400,261.136 296.580,261.000 296.800 C 260.864 297.020,260.311 297.200,259.771 297.200 C 259.231 297.200,258.477 297.362,258.095 297.561 C 257.713 297.760,256.590 298.152,255.600 298.433 C 254.610 298.714,253.620 299.059,253.400 299.200 C 253.180 299.341,252.190 299.707,251.200 300.013 C 248.989 300.697,243.043 303.699,242.170 304.573 C 241.819 304.924,240.916 305.681,240.165 306.254 C 238.839 307.265,238.165 309.600,239.200 309.600 C 239.420 309.600,239.600 310.140,239.600 310.800 C 239.600 311.460,239.780 312.000,240.000 312.000 C 240.220 312.000,240.400 312.360,240.400 312.800 C 240.400 313.240,240.580 313.600,240.800 313.600 C 241.020 313.600,241.200 314.104,241.200 314.720 C 241.200 315.336,241.354 316.011,241.542 316.220 C 241.730 316.429,242.187 317.590,242.558 318.800 C 243.216 320.950,243.734 322.294,244.447 323.695 C 244.641 324.077,244.800 324.752,244.800 325.195 C 244.800 325.638,244.980 326.000,245.200 326.000 C 245.420 326.000,245.600 326.349,245.600 326.776 C 245.600 327.203,245.780 327.664,246.000 327.800 C 246.220 327.936,246.400 328.487,246.400 329.024 C 246.400 329.561,246.580 330.000,246.800 330.000 C 247.020 330.000,247.200 330.439,247.200 330.976 C 247.200 331.513,247.380 332.064,247.600 332.200 C 247.820 332.336,248.000 332.797,248.000 333.224 C 248.000 333.651,248.180 334.000,248.400 334.000 C 248.620 334.000,248.800 334.540,248.800 335.200 C 248.800 335.860,248.980 336.400,249.200 336.400 C 249.420 336.400,249.600 336.672,249.600 337.005 C 249.600 337.338,249.767 337.923,249.971 338.305 C 250.175 338.687,250.439 339.315,250.558 339.700 C 250.907 340.827,301.859 340.778,303.025 339.649 C 305.294 337.452,309.200 331.467,309.200 330.188 C 309.200 329.865,309.335 329.599,309.500 329.598 C 309.761 329.596,310.153 328.435,312.000 322.200 C 312.616 320.120,312.958 312.545,312.451 312.231 C 312.203 312.078,312.000 311.603,312.000 311.176 C 312.000 310.749,311.820 310.400,311.600 310.400 C 311.380 310.400,311.200 309.950,311.200 309.400 C 311.200 308.850,311.020 308.400,310.800 308.400 C 310.580 308.400,310.400 308.040,310.400 307.600 C 310.400 307.160,310.220 306.800,310.000 306.800 C 309.780 306.800,309.600 306.260,309.600 305.600 C 309.600 304.940,309.440 304.400,309.245 304.400 C 309.049 304.400,308.763 303.728,308.609 302.907 C 308.455 302.086,307.985 300.702,307.564 299.832 C 307.144 298.962,306.800 298.095,306.800 297.906 C 306.800 297.716,306.440 296.816,306.000 295.906 C 305.560 294.995,305.200 293.924,305.200 293.525 C 305.200 293.126,305.020 292.800,304.800 292.800 C 304.580 292.800,304.400 292.440,304.400 292.000 C 304.400 291.560,304.220 291.200,304.000 291.200 C 303.780 291.200,303.600 290.660,303.600 290.000 C 303.600 289.340,303.420 288.800,303.200 288.800 C 302.980 288.800,302.800 288.440,302.800 288.000 C 302.800 287.123,302.077 287.038,299.600 287.623 " stroke="none" fill="#043434" fill-rule="evenodd"></path><path id="path2" d="M246.200 158.400 L 245.000 158.705 246.200 158.713 C 246.860 158.717,247.850 158.576,248.400 158.400 L 249.400 158.080 248.400 158.087 C 247.850 158.091,246.860 158.232,246.200 158.400 M241.600 159.200 L 240.600 159.520 241.600 159.532 C 242.150 159.538,242.960 159.389,243.400 159.200 L 244.200 158.856 243.400 158.868 C 242.960 158.874,242.150 159.024,241.600 159.200 M237.800 160.000 C 237.067 160.315,237.084 160.346,238.000 160.366 C 238.550 160.378,239.270 160.213,239.600 160.000 C 240.387 159.491,238.984 159.491,237.800 160.000 M234.400 160.800 L 233.400 161.120 234.400 161.154 C 234.950 161.173,235.670 161.013,236.000 160.800 C 236.764 160.306,235.942 160.306,234.400 160.800 M232.200 161.398 C 231.980 161.472,230.540 161.916,229.000 162.383 C 222.007 164.508,209.200 170.663,209.200 171.899 C 209.200 172.005,209.605 171.828,210.100 171.504 C 212.513 169.929,218.541 166.784,221.400 165.608 C 223.160 164.885,224.960 164.143,225.400 163.960 C 225.840 163.777,227.460 163.249,229.000 162.787 C 231.980 161.892,233.657 161.251,233.000 161.259 C 232.780 161.261,232.420 161.324,232.200 161.398 M205.000 174.655 C 202.337 176.712,192.608 186.400,193.205 186.400 C 193.413 186.400,194.344 185.545,195.274 184.500 C 198.023 181.411,201.762 177.827,204.778 175.390 C 207.260 173.385,207.875 172.799,207.500 172.800 C 207.445 172.800,206.320 173.635,205.000 174.655 M263.200 203.455 C 257.884 204.231,251.285 206.285,249.501 207.719 C 248.857 208.237,249.169 208.169,250.600 207.478 C 252.459 206.581,256.178 205.304,259.000 204.595 C 259.660 204.429,262.090 204.069,264.400 203.795 C 267.391 203.440,267.967 203.298,266.400 203.303 C 265.190 203.306,263.750 203.375,263.200 203.455 M245.056 210.609 C 244.207 211.374,243.667 211.993,243.856 211.983 C 244.327 211.961,247.425 209.198,246.967 209.209 C 246.765 209.214,245.905 209.844,245.056 210.609 M178.846 211.867 C 178.821 212.124,178.684 212.664,178.541 213.067 C 178.340 213.636,178.394 213.697,178.779 213.342 C 179.052 213.091,179.189 212.551,179.084 212.142 C 178.979 211.734,178.872 211.610,178.846 211.867 M241.363 214.263 C 237.815 218.492,234.504 224.364,232.193 230.529 L 231.469 232.457 229.435 232.243 C 228.014 232.093,227.702 232.133,228.400 232.374 C 231.260 233.364,231.686 233.088,233.165 229.299 C 235.495 223.324,238.170 218.732,242.249 213.700 C 242.828 212.985,243.218 212.400,243.114 212.400 C 243.011 212.400,242.223 213.238,241.363 214.263 M176.446 219.067 C 176.421 219.324,176.284 219.864,176.141 220.267 C 175.940 220.836,175.994 220.897,176.379 220.542 C 176.652 220.291,176.789 219.751,176.684 219.342 C 176.579 218.934,176.472 218.810,176.446 219.067 M175.600 222.140 C 175.600 222.742,177.844 223.490,178.295 223.038 C 178.426 222.907,178.156 222.800,177.695 222.800 C 177.234 222.800,176.574 222.517,176.229 222.171 C 175.686 221.628,175.600 221.624,175.600 222.140 M178.833 223.349 C 178.925 223.431,179.900 223.607,181.000 223.741 C 182.346 223.905,182.739 223.865,182.200 223.620 C 181.439 223.274,178.483 223.036,178.833 223.349 M184.200 224.400 C 184.860 224.568,185.850 224.709,186.400 224.713 L 187.400 224.720 186.400 224.400 C 185.850 224.224,184.860 224.083,184.200 224.087 L 183.000 224.095 184.200 224.400 M188.800 225.200 C 190.267 225.670,192.094 225.670,191.000 225.200 C 190.560 225.011,189.660 224.862,189.000 224.868 C 187.830 224.879,187.825 224.888,188.800 225.200 M193.200 226.000 C 194.730 226.490,195.958 226.490,195.200 226.000 C 194.870 225.787,194.060 225.627,193.400 225.646 C 192.224 225.679,192.220 225.686,193.200 226.000 M197.600 226.800 C 198.150 226.976,198.960 227.126,199.400 227.132 L 200.200 227.144 199.400 226.800 C 198.960 226.611,198.150 226.462,197.600 226.468 L 196.600 226.480 197.600 226.800 M202.200 227.600 C 202.640 227.789,203.450 227.944,204.000 227.944 C 204.912 227.944,204.929 227.913,204.200 227.600 C 203.760 227.411,202.950 227.256,202.400 227.256 C 201.488 227.256,201.471 227.287,202.200 227.600 M206.400 228.400 C 207.930 228.890,209.158 228.890,208.400 228.400 C 208.070 228.187,207.260 228.027,206.600 228.046 C 205.424 228.079,205.420 228.086,206.400 228.400 M210.800 229.200 C 211.350 229.376,212.250 229.520,212.800 229.520 L 213.800 229.520 212.800 229.200 C 212.250 229.024,211.350 228.880,210.800 228.880 L 209.800 228.880 210.800 229.200 M215.200 230.000 C 216.667 230.470,218.494 230.470,217.400 230.000 C 216.960 229.811,216.060 229.662,215.400 229.668 C 214.230 229.679,214.225 229.688,215.200 230.000 M219.600 230.800 C 220.150 230.976,221.050 231.120,221.600 231.120 L 222.600 231.120 221.600 230.800 C 221.050 230.624,220.150 230.480,219.600 230.480 L 218.600 230.480 219.600 230.800 M224.200 231.600 C 224.640 231.789,225.540 231.938,226.200 231.932 C 227.370 231.921,227.375 231.912,226.400 231.600 C 224.933 231.130,223.106 231.130,224.200 231.600 M286.692 250.963 C 286.302 251.259,285.243 251.619,284.338 251.763 C 283.433 251.908,282.781 252.114,282.888 252.222 C 283.278 252.611,287.140 251.532,287.355 250.974 C 287.620 250.281,287.591 250.281,286.692 250.963 M279.800 252.800 L 279.000 253.144 279.800 253.144 C 280.240 253.144,280.960 252.989,281.400 252.800 L 282.200 252.456 281.400 252.456 C 280.960 252.456,280.240 252.611,279.800 252.800 M276.200 253.600 L 275.400 253.944 276.200 253.932 C 276.640 253.926,277.450 253.776,278.000 253.600 L 279.000 253.280 278.000 253.268 C 277.450 253.262,276.640 253.411,276.200 253.600 M272.200 254.400 C 271.471 254.713,271.488 254.744,272.400 254.744 C 272.950 254.744,273.760 254.589,274.200 254.400 C 274.929 254.087,274.912 254.056,274.000 254.056 C 273.450 254.056,272.640 254.211,272.200 254.400 M268.600 255.200 C 267.871 255.513,267.888 255.544,268.800 255.544 C 269.350 255.544,270.160 255.389,270.600 255.200 C 271.329 254.887,271.312 254.856,270.400 254.856 C 269.850 254.856,269.040 255.011,268.600 255.200 M265.000 256.000 L 264.200 256.344 265.000 256.344 C 265.440 256.344,266.160 256.189,266.600 256.000 L 267.400 255.656 266.600 255.656 C 266.160 255.656,265.440 255.811,265.000 256.000 M260.600 256.800 C 259.871 257.113,259.888 257.144,260.800 257.144 C 261.350 257.144,262.160 256.989,262.600 256.800 C 263.329 256.487,263.312 256.456,262.400 256.456 C 261.850 256.456,261.040 256.611,260.600 256.800 M256.600 257.600 C 255.867 257.915,255.884 257.946,256.800 257.966 C 257.350 257.978,258.070 257.813,258.400 257.600 C 259.187 257.091,257.784 257.091,256.600 257.600 M252.400 258.400 L 251.400 258.720 252.400 258.732 C 252.950 258.738,253.760 258.589,254.200 258.400 L 255.000 258.056 254.200 258.068 C 253.760 258.074,252.950 258.224,252.400 258.400 M248.400 259.200 C 247.420 259.514,247.424 259.521,248.600 259.554 C 249.260 259.573,250.070 259.413,250.400 259.200 C 251.158 258.710,249.930 258.710,248.400 259.200 M244.800 260.000 L 243.800 260.320 244.800 260.354 C 245.350 260.373,246.070 260.213,246.400 260.000 C 247.164 259.506,246.342 259.506,244.800 260.000 M234.600 262.387 C 230.420 263.463,225.562 264.805,223.805 265.371 C 222.048 265.937,220.248 266.421,219.805 266.446 C 219.142 266.485,219.122 266.525,219.692 266.674 C 220.073 266.774,222.233 266.300,224.492 265.621 C 226.752 264.942,229.140 264.225,229.800 264.027 C 230.460 263.830,233.430 263.092,236.400 262.388 C 241.855 261.094,243.930 260.464,242.800 260.443 C 242.470 260.437,238.780 261.312,234.600 262.387 M297.600 287.187 C 296.170 287.572,293.563 288.213,291.806 288.612 C 290.050 289.011,288.813 289.404,289.057 289.486 C 289.483 289.628,301.222 286.878,301.567 286.556 C 301.920 286.225,300.089 286.516,297.600 287.187 M286.000 290.000 C 285.236 290.494,286.058 290.494,287.600 290.000 L 288.600 289.680 287.600 289.646 C 287.050 289.627,286.330 289.787,286.000 290.000 M282.400 290.821 C 281.970 291.114,282.254 291.154,283.400 290.962 C 285.384 290.630,285.704 290.398,284.167 290.406 C 283.525 290.409,282.730 290.596,282.400 290.821 M278.800 291.621 C 278.370 291.914,278.654 291.954,279.800 291.762 C 281.784 291.430,282.104 291.198,280.567 291.206 C 279.925 291.209,279.130 291.396,278.800 291.621 M275.200 292.400 C 274.436 292.894,275.258 292.894,276.800 292.400 L 277.800 292.080 276.800 292.046 C 276.250 292.027,275.530 292.187,275.200 292.400 M271.600 293.200 C 270.813 293.709,272.216 293.709,273.400 293.200 C 274.133 292.885,274.116 292.854,273.200 292.834 C 272.650 292.822,271.930 292.987,271.600 293.200 M268.400 294.000 C 267.605 294.514,268.604 294.514,269.800 294.000 L 270.600 293.656 269.800 293.634 C 269.360 293.622,268.730 293.787,268.400 294.000 M265.200 294.800 C 264.405 295.314,265.404 295.314,266.600 294.800 L 267.400 294.456 266.600 294.434 C 266.160 294.422,265.530 294.587,265.200 294.800 M262.000 295.600 C 261.205 296.114,262.204 296.114,263.400 295.600 L 264.200 295.256 263.400 295.234 C 262.960 295.222,262.330 295.387,262.000 295.600 M259.200 296.400 C 258.667 296.745,258.667 296.788,259.200 296.788 C 259.530 296.788,260.070 296.613,260.400 296.400 C 260.933 296.055,260.933 296.012,260.400 296.012 C 260.070 296.012,259.530 296.187,259.200 296.400 M256.400 297.200 C 255.903 297.521,255.938 297.588,256.600 297.588 C 257.040 297.588,257.670 297.413,258.000 297.200 C 258.497 296.879,258.462 296.812,257.800 296.812 C 257.360 296.812,256.730 296.987,256.400 297.200 M254.000 298.000 C 253.467 298.345,253.467 298.388,254.000 298.388 C 254.330 298.388,254.870 298.213,255.200 298.000 C 255.733 297.655,255.733 297.612,255.200 297.612 C 254.870 297.612,254.330 297.787,254.000 298.000 M248.718 299.968 C 244.114 301.985,238.800 305.533,238.800 306.590 C 238.800 306.746,239.721 306.046,240.848 305.033 C 242.792 303.285,247.137 300.942,251.300 299.397 C 252.345 299.009,253.200 298.626,253.200 298.546 C 253.200 298.161,251.905 298.571,248.718 299.968 M312.878 319.000 C 312.591 320.980,312.251 323.050,312.122 323.600 C 311.993 324.150,312.000 324.497,312.138 324.372 C 312.541 324.006,313.658 317.625,313.523 316.461 C 313.455 315.877,313.165 317.020,312.878 319.000 M311.236 326.439 C 310.965 327.343,310.639 328.380,310.513 328.742 C 310.362 329.173,310.416 329.262,310.672 329.000 C 311.177 328.480,312.190 325.256,311.929 324.995 C 311.818 324.885,311.506 325.535,311.236 326.439 M309.067 331.841 C 308.469 333.062,308.143 333.959,308.343 333.835 C 308.779 333.565,310.507 329.974,310.301 329.767 C 310.221 329.688,309.666 330.621,309.067 331.841 M307.006 335.488 L 306.304 336.600 307.230 335.711 C 307.739 335.222,308.055 334.722,307.932 334.599 C 307.809 334.476,307.392 334.876,307.006 335.488 M304.741 338.500 C 304.012 339.435,303.735 339.946,304.126 339.636 C 304.903 339.019,306.573 336.800,306.261 336.800 C 306.154 336.800,305.471 337.565,304.741 338.500 " stroke="none" fill="#a0341f" fill-rule="evenodd"></path><path id="path3" d="M242.021 158.779 C 241.646 159.016,242.070 159.065,243.221 158.918 C 244.199 158.792,245.075 158.625,245.167 158.545 C 245.542 158.219,242.555 158.440,242.021 158.779 M209.695 171.011 C 208.543 171.786,207.600 172.508,207.600 172.615 C 207.600 172.721,208.590 172.151,209.800 171.347 C 211.722 170.071,212.287 169.600,211.895 169.600 C 211.837 169.600,210.847 170.235,209.695 171.011 M198.589 180.100 L 195.800 183.000 198.700 180.211 C 201.394 177.620,201.783 177.200,201.489 177.200 C 201.428 177.200,200.123 178.505,198.589 180.100 M265.100 203.882 C 265.595 203.978,266.405 203.978,266.900 203.882 C 267.395 203.787,266.990 203.709,266.000 203.709 C 265.010 203.709,264.605 203.787,265.100 203.882 M260.000 204.400 C 259.176 204.664,259.141 204.726,259.800 204.754 C 260.240 204.773,260.870 204.613,261.200 204.400 C 261.901 203.947,261.414 203.947,260.000 204.400 M247.295 209.411 C 246.143 210.186,245.200 210.908,245.200 211.015 C 245.200 211.121,246.190 210.551,247.400 209.747 C 249.322 208.471,249.887 208.000,249.495 208.000 C 249.437 208.000,248.447 208.635,247.295 209.411 M176.400 223.194 C 176.730 223.411,177.435 223.591,177.967 223.594 C 179.251 223.602,178.925 223.375,177.200 223.058 C 176.215 222.877,175.978 222.918,176.400 223.194 M180.800 223.994 C 181.130 224.211,181.835 224.391,182.367 224.394 C 183.651 224.402,183.325 224.175,181.600 223.858 C 180.615 223.677,180.378 223.718,180.800 223.994 M186.100 225.076 C 186.485 225.176,187.115 225.176,187.500 225.076 C 187.885 224.975,187.570 224.893,186.800 224.893 C 186.030 224.893,185.715 224.975,186.100 225.076 M190.500 225.876 C 190.885 225.976,191.515 225.976,191.900 225.876 C 192.285 225.775,191.970 225.693,191.200 225.693 C 190.430 225.693,190.115 225.775,190.500 225.876 M194.900 226.676 C 195.285 226.776,195.915 226.776,196.300 226.676 C 196.685 226.575,196.370 226.493,195.600 226.493 C 194.830 226.493,194.515 226.575,194.900 226.676 M199.700 227.476 C 200.085 227.576,200.715 227.576,201.100 227.476 C 201.485 227.375,201.170 227.293,200.400 227.293 C 199.630 227.293,199.315 227.375,199.700 227.476 M203.700 228.276 C 204.085 228.376,204.715 228.376,205.100 228.276 C 205.485 228.175,205.170 228.093,204.400 228.093 C 203.630 228.093,203.315 228.175,203.700 228.276 M208.100 229.076 C 208.485 229.176,209.115 229.176,209.500 229.076 C 209.885 228.975,209.570 228.893,208.800 228.893 C 208.030 228.893,207.715 228.975,208.100 229.076 M222.800 231.600 C 224.168 232.038,225.219 232.038,224.200 231.600 C 223.760 231.411,223.040 231.262,222.600 231.268 C 221.957 231.277,221.996 231.343,222.800 231.600 M282.200 252.000 C 281.696 252.217,281.622 252.344,282.000 252.344 C 282.330 252.344,282.960 252.189,283.400 252.000 C 283.904 251.783,283.978 251.656,283.600 251.656 C 283.270 251.656,282.640 251.811,282.200 252.000 M278.600 252.800 C 278.096 253.017,278.022 253.144,278.400 253.144 C 278.730 253.144,279.360 252.989,279.800 252.800 C 280.304 252.583,280.378 252.456,280.000 252.456 C 279.670 252.456,279.040 252.611,278.600 252.800 M263.400 256.000 C 262.311 256.277,262.293 256.307,263.200 256.325 C 263.750 256.335,264.560 256.189,265.000 256.000 C 265.986 255.576,265.066 255.576,263.400 256.000 M258.100 257.076 C 258.485 257.176,259.115 257.176,259.500 257.076 C 259.885 256.975,259.570 256.893,258.800 256.893 C 258.030 256.893,257.715 256.975,258.100 257.076 M254.100 257.876 C 254.485 257.976,255.115 257.976,255.500 257.876 C 255.885 257.775,255.570 257.693,254.800 257.693 C 254.030 257.693,253.715 257.775,254.100 257.876 M245.200 259.606 C 244.778 259.882,245.015 259.923,246.000 259.742 C 247.725 259.425,248.051 259.198,246.767 259.206 C 246.235 259.209,245.530 259.389,245.200 259.606 M286.000 290.400 C 285.176 290.664,285.141 290.726,285.800 290.754 C 286.240 290.773,286.870 290.613,287.200 290.400 C 287.901 289.947,287.414 289.947,286.000 290.400 M282.400 291.200 C 281.576 291.464,281.541 291.526,282.200 291.554 C 282.640 291.573,283.270 291.413,283.600 291.200 C 284.301 290.747,283.814 290.747,282.400 291.200 M278.600 292.000 C 277.493 292.282,277.477 292.309,278.400 292.347 C 278.950 292.369,279.670 292.213,280.000 292.000 C 280.681 291.560,280.329 291.560,278.600 292.000 M275.000 292.800 C 273.893 293.082,273.877 293.109,274.800 293.147 C 275.350 293.169,276.070 293.013,276.400 292.800 C 277.081 292.360,276.729 292.360,275.000 292.800 M260.400 296.418 C 259.962 296.715,260.124 296.752,261.000 296.556 C 262.471 296.227,262.790 295.998,261.767 296.006 C 261.345 296.009,260.730 296.195,260.400 296.418 M244.700 302.229 C 243.149 303.070,243.325 303.361,244.900 302.559 C 246.408 301.793,246.675 301.594,246.167 301.616 C 245.965 301.625,245.305 301.901,244.700 302.229 M241.585 304.429 L 240.200 305.658 241.700 304.581 C 243.026 303.630,243.457 303.200,243.085 303.200 C 243.022 303.200,242.347 303.753,241.585 304.429 M312.669 317.956 C 312.521 318.695,312.420 319.683,312.444 320.150 C 312.468 320.618,312.647 320.190,312.842 319.200 C 313.037 318.210,313.138 317.223,313.067 317.006 C 312.996 316.790,312.817 317.217,312.669 317.956 M311.849 323.015 C 311.712 323.373,311.615 323.966,311.634 324.333 C 311.653 324.700,311.827 324.469,312.021 323.820 C 312.398 322.558,312.265 321.933,311.849 323.015 M307.753 333.700 C 306.376 336.036,306.286 336.235,306.987 335.400 C 307.800 334.432,308.500 333.200,308.238 333.200 C 308.133 333.200,307.915 333.425,307.753 333.700 " stroke="none" fill="#59342a" fill-rule="evenodd"></path><path id="path4" d="M245.390 158.016 C 245.221 158.289,245.523 158.338,246.266 158.160 C 247.799 157.792,247.944 157.600,246.690 157.600 C 246.117 157.600,245.532 157.787,245.390 158.016 M204.962 174.062 L 204.200 174.924 205.300 174.216 C 206.434 173.486,206.649 173.200,206.062 173.200 C 205.876 173.200,205.381 173.588,204.962 174.062 M197.600 180.600 C 196.628 181.590,195.923 182.400,196.033 182.400 C 196.143 182.400,197.028 181.590,198.000 180.600 C 198.972 179.610,199.677 178.800,199.567 178.800 C 199.457 178.800,198.572 179.610,197.600 180.600 M261.200 204.418 C 260.762 204.715,260.924 204.752,261.800 204.556 C 263.271 204.227,263.590 203.998,262.567 204.006 C 262.145 204.009,261.530 204.195,261.200 204.418 M174.984 222.027 C 174.719 222.455,175.860 223.563,176.589 223.587 C 176.803 223.594,176.575 223.318,176.082 222.973 C 175.590 222.628,175.290 222.178,175.417 221.973 C 175.544 221.768,175.557 221.600,175.447 221.600 C 175.337 221.600,175.129 221.792,174.984 222.027 M234.952 225.500 C 234.574 226.325,234.195 227.135,234.109 227.300 C 234.023 227.465,234.045 227.600,234.158 227.600 C 234.270 227.600,234.671 226.925,235.048 226.100 C 235.426 225.275,235.805 224.465,235.891 224.300 C 235.977 224.135,235.955 224.000,235.842 224.000 C 235.730 224.000,235.329 224.675,234.952 225.500 M205.800 228.800 C 205.936 229.020,206.442 229.187,206.924 229.172 C 207.769 229.145,207.771 229.131,207.000 228.800 C 205.899 228.327,205.508 228.327,205.800 228.800 M210.190 229.584 C 210.332 229.813,210.917 230.000,211.490 230.000 C 212.744 230.000,212.599 229.808,211.066 229.440 C 210.323 229.262,210.021 229.311,210.190 229.584 M214.741 230.501 C 214.943 230.703,215.533 230.801,216.054 230.719 C 216.855 230.593,216.798 230.537,215.687 230.352 C 214.893 230.221,214.519 230.279,214.741 230.501 M219.160 231.320 C 219.346 231.506,220.106 231.596,220.849 231.519 C 222.167 231.383,222.158 231.375,220.510 231.180 C 219.581 231.071,218.973 231.133,219.160 231.320 M223.560 232.120 C 223.746 232.306,224.506 232.396,225.249 232.319 C 226.567 232.183,226.558 232.175,224.910 231.980 C 223.981 231.871,223.373 231.933,223.560 232.120 M227.621 232.821 C 228.155 233.160,231.142 233.381,230.767 233.055 C 230.675 232.975,229.799 232.808,228.821 232.682 C 227.670 232.535,227.246 232.584,227.621 232.821 M279.052 252.316 C 278.944 252.490,279.473 252.561,280.228 252.473 C 280.983 252.385,281.600 252.242,281.600 252.156 C 281.600 251.855,279.245 252.003,279.052 252.316 M275.600 253.206 C 275.178 253.482,275.415 253.523,276.400 253.342 C 278.125 253.025,278.451 252.798,277.167 252.806 C 276.635 252.809,275.930 252.989,275.600 253.206 M260.245 256.328 C 260.133 256.508,260.573 256.577,261.221 256.482 C 261.870 256.387,262.400 256.240,262.400 256.155 C 262.400 255.850,260.443 256.007,260.245 256.328 M240.843 305.223 C 240.317 305.661,239.957 306.090,240.043 306.176 C 240.130 306.262,240.705 305.897,241.322 305.366 C 241.940 304.835,242.300 304.406,242.122 304.413 C 241.945 304.421,241.370 304.785,240.843 305.223 " stroke="none" fill="#31342f" fill-rule="evenodd"></path></g></svg>